# xmcd CD database file
#
# Track frame offsets:
#	150
#	16124
#	34872
#	65320
#	85720
#	99666
#	114443
#	159123
#	171306
#	188463
#	221013
#	260479
#
# Disc length: 3766 seconds
#
# Revision: 4
# Processed by: cddbd v1.4PL0 Copyright (c) Steve Scherf et al.
# Submitted via: CDex 1.40Release
#
DISCID=8f0eb40c
DTITLE=Stevie Ray Vaughan - Live at the El Mocambo
DYEAR=1983
DGENRE=Blues
TTITLE0=Testify
TTITLE1=So Exccited
TTITLE2=Voodoo Chile
TTITLE3=Pride and Joy
TTITLE4=Tell Me
TTITLE5=Mary Had A Little Lamb
TTITLE6=Texas Flood
TTITLE7=Love Struck Baby
TTITLE8=Hug You Squeeze You
TTITLE9=Third Stone From The Sun
TTITLE10=Lenny
TTITLE11=Wham!
EXTD=YEAR: 1983 ID3G: 0
EXTT0=
EXTT1=
EXTT2=
EXTT3=
EXTT4=
EXTT5=
EXTT6=
EXTT7=
EXTT8=
EXTT9=
EXTT10=
EXTT11=
PLAYORDER=
